<?xml version='1.0' encoding='utf-8'?>
<!DOCTYPE svg PUBLIC '-//W3C//DTD SVG 1.1//EN' 'http://www.w3.org/Graphics/SVG/1.1/DTD/svg11.dtd'>
<svg version="1.1" xmlns="http://www.w3.org/2000/svg" viewBox="0 0 512 512" xmlns:xlink="http://www.w3.org/1999/xlink" enable-background="new 0 0 512 512">
  <g>
    <g>
      <path d="m480.6,124.2h-102.9l-49.6-101.7c-4.9-10.1-17.1-14.3-27.3-9.4-10.1,4.9-14.3,17.2-9.4,27.3l40.9,83.9h-152.6l40.9-83.9c5-10.1 0.7-22.4-9.4-27.3-10.2-5-22.4-0.7-27.3,9.4l-49.7,101.8h-102.8c-17,0-22.8,14.3-19.7,25.8l91.7,335.9c2.4,8.9 10.5,15 19.7,15h265.9c9.2,0 17.3-6.2 19.7-15l91.6-336c2.9-10-2.5-25.8-19.7-25.8zm-107.2,336h-234.8l-80.5-295.1h56.2l-17,34.8c-5,10.1-0.7,22.4 9.4,27.3 10.2,5 22.4,0.7 27.3-9.4l25.7-52.7h192.5l25.7,52.7c4.9,10.1 17.1,14.3 27.3,9.4 10.1-4.9 14.3-17.2 9.4-27.3l-17-34.8h56.2l-80.4,295.1z"/>
      <path d="m171.6,267.6c-11.3,0-20.4,9.1-20.4,20.4v98.3c0,11.3 9.1,20.4 20.4,20.4 11.3,0 20.4-9.1 20.4-20.4v-98.3c0-11.3-9.1-20.4-20.4-20.4z"/>
      <path d="m256,267.6c-11.3,0-20.4,9.1-20.4,20.4v98.3c0,11.3 9.1,20.4 20.4,20.4 11.3,0 20.4-9.1 20.4-20.4v-98.3c0-11.3-9.1-20.4-20.4-20.4z"/>
      <path d="m340.4,267.6c-11.3,0-20.4,9.1-20.4,20.4v98.3c0,11.3 9.1,20.4 20.4,20.4s20.4-9.1 20.4-20.4v-98.3c5.68434e-14-11.3-9.1-20.4-20.4-20.4z"/>
    </g>
  </g>
</svg>
