<?xml version="1.0" standalone="no"?>
<!DOCTYPE svg PUBLIC "-//W3C//DTD SVG 20010904//EN"
 "http://www.w3.org/TR/2001/REC-SVG-20010904/DTD/svg10.dtd">
<svg version="1.0" xmlns="http://www.w3.org/2000/svg"
 width="512.000000pt" height="512.000000pt" viewBox="0 0 512.000000 512.000000"
 preserveAspectRatio="xMidYMid meet">

<g transform="translate(0.000000,512.000000) scale(0.100000,-0.100000)"
fill="#ff0404" stroke="#000">
<path d="M1715 3979 c-389 -30 -701 -106 -850 -209 -27 -18 -74 -46 -106 -62
-114 -57 -210 -204 -248 -383 -11 -49 -19 -91 -17 -92 1 -2 15 30 30 70 64
164 205 335 279 337 13 0 17 -8 16 -32 -2 -31 -2 -31 -6 -5 -2 15 -8 27 -12
27 -4 0 -28 -13 -53 -29 -85 -54 -174 -189 -230 -348 -26 -73 -31 -104 -32
-183 l-1 -95 100 2 100 1 -99 -9 c-67 -6 -103 -6 -110 1 -6 6 -10 45 -9 88 l1
77 -10 -77 c-7 -51 -15 -78 -23 -78 -17 0 -22 -14 -30 -86 -7 -57 -7 -59 11
-42 26 22 92 36 188 39 74 3 79 4 87 28 l9 26 272 -3 c149 -1 275 1 279 5 4 4
-96 9 -223 10 -153 2 -236 7 -244 14 -20 17 -18 48 26 347 39 274 45 297 76
323 18 15 18 14 -8 -41 -10 -21 -32 -142 -53 -300 -20 -146 -38 -273 -40 -283
-2 -9 4 -24 12 -33 13 -12 55 -15 277 -14 164 1 271 -2 289 -9 27 -11 28 -13
26 -83 -1 -40 -10 -100 -20 -134 l-20 -61 -62 13 c-34 7 -123 24 -197 39 -184
35 -270 55 -302 72 -25 12 -27 12 -22 -4 4 -13 0 -12 -12 5 -9 12 -22 22 -29
22 -7 0 -15 7 -18 15 -5 11 6 15 51 18 56 3 55 3 -14 5 -65 2 -72 0 -82 -20
-11 -22 -11 -22 -6 4 l6 27 -89 -5 c-106 -6 -151 -25 -175 -75 -18 -35 -16
-95 7 -234 4 -24 3 -27 -6 -12 -23 39 -99 4 -125 -59 -8 -19 -14 -50 -14 -71
l0 -38 -31 55 c-43 78 -68 102 -98 95 -14 -4 -27 -1 -31 6 -20 32 -73 -207
-90 -410 -14 -158 -3 -202 55 -213 19 -3 20 -14 26 -153 7 -165 31 -288 75
-380 39 -84 59 -95 168 -95 63 0 100 5 121 16 18 9 42 13 60 10 16 -3 65 -6
107 -7 145 -3 343 -53 538 -134 46 -19 89 -35 96 -35 6 0 31 -43 55 -96 79
-177 178 -289 290 -330 37 -13 66 -15 184 -8 77 5 401 9 720 9 319 0 621 4
670 8 50 5 178 15 285 23 421 32 929 91 1025 118 146 41 224 65 257 79 63 26
135 108 178 200 56 120 74 215 75 380 0 149 -5 139 62 152 48 10 54 23 50 115
-4 87 -17 110 -58 110 -46 0 -50 9 -43 81 6 64 -3 245 -12 236 -2 -2 -6 -30
-9 -62 -9 -125 -86 -204 -204 -213 -32 -2 -61 0 -64 5 -3 5 30 25 74 44 44 18
83 37 85 41 3 4 -11 1 -30 -7 -67 -28 -149 -13 -212 38 -40 33 -84 116 -84
160 0 15 -4 27 -10 27 -6 0 -10 27 -10 60 0 33 -4 60 -10 60 -15 0 -12 29 7
84 l18 48 -44 38 c-24 21 -78 58 -120 83 -65 39 -101 75 -101 102 0 8 40 -8
51 -21 7 -8 31 -14 59 -14 61 0 141 -28 207 -73 29 -19 95 -52 148 -72 52 -20
98 -41 101 -47 3 -5 -10 -2 -30 6 -62 26 -38 2 27 -26 l62 -28 -81 78 c-87 83
-179 143 -260 169 -46 14 -53 20 -63 54 -12 39 -12 39 -64 39 -58 0 -77 -12
-77 -47 0 -13 -4 -23 -10 -23 -5 0 -10 5 -10 10 0 6 -12 10 -27 10 -35 0 -40
4 -87 66 -38 51 -107 110 -156 134 -18 8 -15 4 10 -17 56 -44 90 -84 116 -135
30 -58 31 -75 3 -28 -31 50 -137 149 -201 188 -37 22 -100 44 -201 69 -143 35
-168 47 -104 49 18 0 55 1 82 3 l50 3 -45 12 c-26 7 -60 9 -80 4 -39 -8 -60 9
-35 28 22 17 18 25 -8 19 -21 -6 -26 1 -52 62 -77 185 -177 361 -262 461 -65
77 -237 193 -263 177 -5 -3 -39 -1 -75 5 -185 30 -785 42 -1040 21 -71 -6
-199 -13 -283 -16 -134 -4 -351 -32 -522 -66 -58 -12 -304 -39 -308 -34 -7 7
75 44 178 80 124 43 338 87 540 112 111 13 223 17 475 18 346 0 455 -7 743
-51 185 -27 194 -28 132 -8 -67 21 -234 52 -377 70 -153 19 -650 27 -828 13z
m1130 -149 c331 -25 423 -74 549 -298 104 -184 162 -334 145 -379 -12 -33 -54
-36 -230 -13 -303 38 -324 40 -364 41 -38 1 -38 2 -10 8 l30 7 -35 11 c-43 14
-356 63 -401 63 -6 0 -7 5 -4 10 3 6 -1 10 -9 10 -9 0 -16 -7 -16 -15 0 -8 3
-15 8 -15 9 0 200 -35 272 -50 30 -7 62 -16 70 -21 13 -7 -201 -13 -508 -14
-39 0 -72 -3 -72 -7 0 -5 -17 -8 -39 -8 -58 0 -329 -38 -476 -66 -187 -37
-248 -21 -274 72 -17 61 -25 349 -12 418 26 141 113 195 371 232 205 29 704
36 1005 14z m-1661 -191 c21 -6 58 -29 82 -51 60 -55 82 -132 88 -311 l3 -79
-69 4 c-68 3 -68 3 -68 -23 0 -17 9 -32 25 -43 26 -17 34 -56 13 -57 -7 0 -3
-4 10 -9 38 -16 24 -29 -35 -32 -53 -4 -55 -5 -26 -12 18 -5 38 -15 45 -23 11
-13 4 -14 -52 -10 -79 7 -71 7 -149 1 -47 -5 -66 -2 -72 8 -14 21 -10 85 6
125 l15 36 100 -5 c82 -4 100 -2 105 10 3 8 3 17 1 20 -10 9 -213 -18 -273
-36 l-62 -20 5 62 c3 33 11 141 19 238 7 97 16 182 20 188 4 6 17 15 29 20 30
12 194 12 240 -1z m-401 -116 c-8 -43 -25 -127 -39 -187 -13 -60 -32 -162 -41
-228 -10 -65 -20 -118 -23 -118 -3 0 -2 60 2 133 12 229 13 306 5 291 -7 -12
-11 -12 -31 1 -12 8 -26 12 -31 8 -5 -5 7 14 25 40 36 51 123 137 138 137 6 0
3 -34 -5 -77z m676 -321 c1 -30 -3 -51 -8 -47 -5 3 -13 0 -18 -7 -5 -8 -10 1
-15 27 -10 59 -10 147 1 140 5 -3 13 0 18 7 10 16 22 -47 22 -120z m1536 -83
c68 -13 223 -89 294 -143 108 -83 216 -223 288 -373 46 -96 83 -195 83 -222 0
-27 -16 2 -34 64 -28 95 -111 253 -183 349 -130 173 -324 295 -511 321 -29 4
-52 11 -52 16 0 8 19 6 115 -12z m-1641 -68 c4 -5 -3 -7 -14 -4 -23 6 -26 13
-6 13 8 0 17 -4 20 -9z m1386 -47 c-27 -6 -294 -33 -380 -38 l-85 -5 65 10
c111 17 302 37 360 37 30 0 48 -2 40 -4z m954 -49 c97 -29 275 -96 380 -144
38 -18 75 -30 82 -27 7 3 15 -2 18 -10 7 -19 -8 -15 -119 33 -105 46 -333 129
-415 153 -36 10 -58 19 -50 19 9 1 55 -10 104 -24z m-1774 -4 c73 -7 54 -8
-125 -10 -153 -1 -215 -4 -224 -13 -11 -11 -12 -10 -7 0 6 10 1 11 -18 6 -30
-7 -35 3 -6 14 29 11 281 13 380 3z m323 2 c-7 -2 -19 -2 -25 0 -7 3 -2 5 12
5 14 0 19 -2 13 -5z m-1563 -27 c0 -24 -15 -26 -33 -5 -16 18 -16 19 8 19 15
0 25 -6 25 -14z m1079 -107 c68 -11 133 -25 145 -30 19 -9 19 -9 -4 -5 -91 17
-91 12 0 -14 93 -28 146 -38 203 -39 9 -1 17 -5 17 -11 0 -5 -22 -10 -49 -10
-56 0 -81 -17 -81 -56 0 -29 -7 -30 -28 -4 -16 19 -23 19 -109 10 -51 -5 -112
-14 -135 -19 -27 -6 -67 -7 -103 -1 -161 24 -215 34 -215 42 0 5 7 23 16 40 9
18 20 44 25 60 6 24 5 28 -12 28 -10 0 -19 5 -19 10 0 6 7 10 15 10 8 0 15 5
15 11 0 16 157 5 319 -22z m-996 -48 c6 -6 -7 -12 -35 -16 -66 -10 -102 -3
-106 19 -4 18 1 19 64 13 37 -4 72 -11 77 -16z m1194 3 c-3 -3 -12 -4 -19 -1
-8 3 -5 6 6 6 11 1 17 -2 13 -5z m2503 -4 c0 -5 7 -10 15 -10 21 0 19 -12 -5
-33 -23 -19 -65 -23 -76 -6 -11 19 17 59 43 59 13 0 23 -4 23 -10z m-2463 -6
c-3 -3 -12 -4 -19 -1 -8 3 -5 6 6 6 11 1 17 -2 13 -5z m103 -79 c0 -8 7 -15
15 -15 20 0 19 -6 -6 -31 -28 -28 -83 -23 -87 9 -2 12 1 22 7 22 6 0 11 7 11
15 0 10 10 15 30 15 20 0 30 -5 30 -15z m60 -5 c0 -5 -4 -10 -10 -10 -5 0 -10
5 -10 10 0 6 5 10 10 10 6 0 10 -4 10 -10z m-300 -45 c-58 -7 -123 -16 -145
-20 -59 -11 -38 2 31 19 32 8 95 14 139 14 l80 0 -105 -13z m150 -35 c108 -13
197 -43 258 -85 26 -18 67 -42 90 -54 23 -12 42 -24 42 -26 0 -3 -26 8 -57 24
-63 31 -212 69 -309 78 -161 15 -318 -74 -359 -202 -15 -50 -16 -68 -6 -143 6
-47 19 -103 30 -124 11 -22 13 -34 6 -28 -7 6 -30 54 -50 107 -29 73 -49 107
-84 144 -42 44 -52 49 -91 49 -92 0 -150 -86 -194 -290 -13 -63 -25 -107 -25
-96 -2 33 48 263 68 313 10 28 16 61 14 80 -5 30 12 51 41 51 4 0 25 20 45 44
74 91 140 134 221 145 19 3 58 8 85 13 74 11 180 11 275 0z m1314 -187 c43 -8
124 -30 180 -49 56 -19 102 -34 103 -34 1 0 5 -19 9 -42 8 -42 8 -43 14 -13
l7 30 10 -25 c6 -14 14 -52 18 -85 4 -33 14 -72 23 -87 15 -25 15 -29 -2 -47
-25 -27 -17 -55 16 -59 19 -2 30 3 37 17 6 11 7 22 2 25 -5 3 -11 -1 -15 -9
-7 -19 -46 -20 -46 0 0 7 8 18 17 24 15 8 16 18 7 105 -9 76 -15 101 -32 119
-24 25 -29 62 -10 73 20 13 63 -48 76 -108 16 -69 64 -160 100 -188 14 -12 40
-24 57 -27 29 -6 28 -7 -20 -21 -94 -26 -190 -34 -375 -29 -194 5 -228 11
-354 64 -83 34 -149 79 -231 154 -39 35 -96 87 -128 114 -55 48 -56 50 -30 51
16 1 51 10 78 21 l50 20 43 -46 43 -46 -30 46 -31 47 93 14 c106 16 209 13
321 -9z m-787 -89 c23 -25 54 -70 70 -98 25 -45 28 -61 28 -141 0 -84 -2 -94
-34 -154 -40 -73 -83 -105 -163 -122 -119 -26 -256 22 -329 114 -22 28 -49 68
-60 88 -20 40 -27 125 -9 114 6 -3 10 -15 10 -25 0 -30 36 -105 69 -142 43
-50 109 -77 208 -89 138 -15 203 13 250 108 23 48 25 62 21 136 -3 62 -11 94
-30 132 -30 58 -107 134 -157 155 -29 12 -31 15 -15 20 25 9 87 -33 141 -96z
m-126 56 c162 -81 209 -279 98 -413 -45 -55 -102 -81 -174 -81 -118 0 -212 84
-233 207 -6 34 -12 43 -31 45 -22 4 -23 7 -18 52 13 106 94 199 192 220 42 9
115 -5 166 -30z m1454 -155 c122 -56 161 -102 123 -150 -28 -36 -104 -36 -148
1 -36 31 -75 103 -85 158 -7 37 -7 38 16 31 13 -4 56 -22 94 -40z m-3620 -54
c3 -5 1 -12 -4 -15 -12 -8 -54 -117 -47 -123 2 -3 13 4 23 14 10 10 33 19 51
20 26 2 32 -2 32 -17 0 -26 -15 -33 -30 -15 -26 31 -30 13 -6 -27 13 -24 27
-58 31 -75 4 -18 10 -35 14 -37 4 -3 2 -54 -5 -113 -10 -77 -19 -115 -34 -135
-23 -31 -25 -41 -8 -36 6 2 20 -4 31 -15 15 -15 16 -21 5 -34 -11 -14 -13 -13
-18 8 -3 13 -12 24 -20 24 -8 0 -20 7 -27 15 -6 8 -15 12 -19 8 -4 -4 6 -24
22 -44 16 -20 33 -43 39 -50 14 -20 -7 -49 -36 -49 -33 0 -66 70 -86 182 -19
108 -13 352 10 426 25 80 62 119 82 88z m4000 -243 c-15 -24 -39 -55 -53 -70
l-25 -27 154 4 c92 2 136 1 109 -4 l-45 -8 37 -1 c20 -1 76 11 125 27 115 38
266 51 314 27 26 -13 49 -15 111 -10 56 5 78 4 78 -5 0 -6 -10 -11 -22 -11
-12 0 -47 -5 -77 -10 -31 -6 -164 -22 -296 -35 -147 -15 -302 -38 -400 -59
-142 -30 -184 -35 -370 -41 -115 -3 -311 -10 -435 -15 -348 -14 -671 -15 -679
-1 -5 8 -27 8 -82 1 -41 -5 -102 -10 -136 -10 -35 0 -63 -4 -63 -9 0 -6 -96
-9 -233 -8 -226 2 -233 3 -255 25 -12 12 -31 22 -43 22 -12 0 -19 5 -16 13 3
9 42 12 148 13 116 0 152 4 184 19 50 22 235 23 269 2 23 -15 57 -14 666 23
190 11 479 27 644 35 l299 15 38 42 c21 24 46 57 56 75 9 18 19 30 22 28 2 -3
-9 -24 -24 -47z m-2988 -35 c-3 -10 -5 -4 -5 12 0 17 2 24 5 18 2 -7 2 -21 0
-30z m-10 -70 c-3 -10 -5 -4 -5 12 0 17 2 24 5 18 2 -7 2 -21 0 -30z m3695
-59 c-7 -12 -11 -13 -17 -4 -4 7 -2 16 6 21 18 11 23 4 11 -17z m-3212 -4 c89
-45 151 -166 169 -331 25 -220 -51 -400 -168 -402 -54 -1 -94 11 -88 28 7 17
-12 33 -52 45 l-31 9 19 -27 c28 -39 52 -59 94 -77 43 -18 108 -20 125 -3 8 8
12 8 12 1 0 -17 -67 -72 -96 -79 -49 -12 -124 2 -167 32 -50 35 -117 131 -147
211 -53 140 -63 326 -25 451 14 46 19 52 43 52 34 0 75 -27 65 -43 -4 -7 0 -7
10 1 9 8 19 22 22 32 3 11 12 17 19 14 16 -6 66 33 66 53 0 10 -6 13 -16 9
-29 -11 -2 16 30 30 43 19 70 17 116 -6z m-493 -22 c-3 -7 -5 -2 -5 12 0 14 2
19 5 13 2 -7 2 -19 0 -25z m3347 -3 c-6 -16 -24 -21 -24 -7 0 11 11 22 21 22
5 0 6 -7 3 -15z m319 -12 c-7 -2 -19 -2 -25 0 -7 3 -2 5 12 5 14 0 19 -2 13
-5z m-88 -14 c-204 -33 -867 -83 -1535 -115 -80 -3 -149 -10 -155 -14 -26 -19
-283 -31 -708 -31 -252 0 -460 1 -461 3 -2 2 -6 15 -10 30 l-6 28 292 -3 c534
-4 986 8 1563 43 99 5 225 12 280 14 104 4 299 19 540 41 77 7 165 12 195 12
l55 1 -50 -9z m-681 -14 c-6 -16 -24 -21 -24 -7 0 11 11 22 21 22 5 0 6 -7 3
-15z m-524 -12 c0 -5 -4 -15 -10 -23 -11 -18 -25 -7 -17 15 6 15 27 21 27 8z
m-2705 -133 c171 -45 312 -84 314 -86 3 -2 0 -9 -5 -14 -7 -7 -21 -7 -40 -1
-16 5 -183 51 -371 102 -226 60 -343 96 -343 105 0 10 15 9 68 -6 37 -10 206
-55 377 -100z m2158 114 c3 -4 -1 -13 -9 -21 -17 -18 -29 -11 -21 12 7 16 19
20 30 9z m-557 -30 c-18 -18 -26 -18 -26 0 0 15 20 26 33 19 4 -2 1 -11 -7
-19z m-1632 -116 c103 -32 133 -44 111 -46 -16 -2 -70 -15 -118 -28 -90 -25
-199 -33 -271 -21 -23 5 -44 3 -51 -3 -11 -9 -10 -1 1 36 8 26 14 57 14 70 0
29 10 32 99 33 60 1 101 -7 215 -41z m3047 -224 c32 -6 38 -11 55 -57 10 -28
21 -56 23 -61 2 -5 -1 -6 -6 -3 -5 3 -65 11 -134 17 -68 6 -209 24 -314 40
-104 16 -203 31 -220 33 -18 2 -8 5 25 6 30 2 98 8 150 15 101 14 361 20 421
10z"/>
<path d="M2353 3803 c9 -2 25 -2 35 0 9 3 1 5 -18 5 -19 0 -27 -2 -17 -5z"/>
<path d="M2493 3803 c9 -2 23 -2 30 0 6 3 -1 5 -18 5 -16 0 -22 -2 -12 -5z"/>
<path d="M2598 3803 c12 -2 32 -2 45 0 12 2 2 4 -23 4 -25 0 -35 -2 -22 -4z"/>
<path d="M2873 3793 c15 -2 39 -2 55 0 15 2 2 4 -28 4 -30 0 -43 -2 -27 -4z"/>
<path d="M3008 3779 c29 -6 50 -15 47 -20 -13 -20 -134 -79 -163 -79 -20 0
-32 -5 -32 -13 0 -8 -8 -14 -17 -14 -50 1 -105 -6 -85 -10 15 -3 22 -11 22
-28 0 -13 9 -48 19 -77 11 -29 28 -90 37 -135 l17 -83 19 41 c10 23 18 53 19
68 1 28 3 22 30 -82 8 -31 13 -36 24 -27 8 7 18 9 23 6 6 -3 15 1 22 9 15 18
6 124 -25 288 l-7 38 117 -2 c144 -2 154 -4 172 -43 14 -31 14 -31 10 -3 -10
66 53 2 129 -133 30 -52 54 -90 54 -85 0 4 -19 42 -41 84 -126 229 -208 295
-379 306 l-65 4 53 -10z"/>
<path d="M2700 3634 c-8 -3 -42 -16 -75 -29 -49 -19 -242 -71 -330 -88 -60
-12 -85 -20 -85 -27 0 -5 -14 -11 -31 -15 -18 -4 -35 -16 -41 -31 -15 -32 -32
-30 -44 4 -9 24 -10 21 -11 -28 -1 -31 -9 -75 -18 -98 -16 -38 -21 -42 -44
-38 -78 16 -255 32 -308 28 -22 -2 -32 -26 -14 -36 4 -3 64 -15 132 -27 68
-12 127 -24 131 -28 4 -3 -93 -7 -215 -8 -164 -2 -223 1 -229 10 -4 7 -8 -4
-8 -25 0 -51 33 -88 86 -95 25 -3 88 5 165 20 152 32 339 57 422 57 160 0
-105 68 -371 95 -110 11 -118 26 -12 21 171 -9 419 -54 489 -89 14 -7 44 -11
66 -9 l41 4 12 63 c23 120 49 174 121 245 59 59 101 86 181 119 25 10 18 14
-10 5z m-655 -444 c4 -6 -5 -10 -20 -10 -14 0 -82 -9 -151 -20 -112 -18 -127
-19 -140 -5 -9 8 -14 15 -12 16 2 0 28 3 58 5 59 5 227 20 247 23 6 0 15 -3
18 -9z"/>
<path d="M1503 3280 c0 -25 2 -35 4 -22 2 12 2 32 0 45 -2 12 -4 2 -4 -23z"/>
<path d="M2573 3283 c9 -2 23 -2 30 0 6 3 -1 5 -18 5 -16 0 -22 -2 -12 -5z"/>
<path d="M2680 3280 c8 -5 26 -10 39 -10 32 0 24 6 -19 14 -25 4 -31 3 -20 -4z"/>
<path d="M2433 3203 c15 -2 37 -2 50 0 12 2 0 4 -28 4 -27 0 -38 -2 -22 -4z"/>
<path d="M1203 3245 c0 -27 2 -38 4 -22 2 15 2 37 0 50 -2 12 -4 0 -4 -28z"/>
<path d="M1233 3255 c0 -22 2 -30 4 -17 2 12 2 30 0 40 -3 9 -5 -1 -4 -23z"/>
<path d="M1252 3248 c2 -21 9 -33 18 -34 23 -1 34 8 20 16 -7 4 -9 13 -5 20 6
9 9 9 15 0 5 -8 9 -5 13 9 4 18 1 21 -30 21 -33 0 -34 -1 -31 -32z"/>
<path d="M1000 3261 l-105 -6 -3 -47 c-2 -27 1 -48 5 -48 4 0 40 6 78 15 39 8
102 18 140 22 70 8 70 8 73 41 4 37 26 34 -188 23z"/>
<path d="M702 3235 c0 -16 2 -22 5 -12 2 9 2 23 0 30 -3 6 -5 -1 -5 -18z"/>
<path d="M1758 2803 c7 -3 16 -2 19 1 4 3 -2 6 -13 5 -11 0 -14 -3 -6 -6z"/>
<path d="M1623 2793 c9 -2 25 -2 35 0 9 3 1 5 -18 5 -19 0 -27 -2 -17 -5z"/>
<path d="M1693 2783 c9 -2 23 -2 30 0 6 3 -1 5 -18 5 -16 0 -22 -2 -12 -5z"/>
<path d="M1840 2751 c58 -15 110 -29 115 -31 6 -1 17 -2 25 -1 23 3 -25 20
-118 42 -125 29 -141 22 -22 -10z"/>
<path d="M3632 2200 c0 -14 2 -19 5 -12 2 6 2 18 0 25 -3 6 -5 1 -5 -13z"/>
<path d="M3617 2076 c-13 -32 -58 -49 -150 -56 l-92 -7 70 -1 c39 -1 86 3 106
8 35 10 88 55 77 65 -3 3 -8 -1 -11 -9z"/>
<path d="M3338 2023 c7 -3 16 -2 19 1 4 3 -2 6 -13 5 -11 0 -14 -3 -6 -6z"/>
<path d="M2276 2359 c-22 -5 -55 -21 -73 -35 -39 -30 -86 -116 -80 -147 4 -19
4 -18 6 4 2 40 61 120 105 143 57 29 122 26 178 -7 55 -32 87 -80 104 -156 11
-54 12 -55 13 -17 2 78 -79 186 -150 201 -16 4 -31 11 -34 16 -7 11 -16 10
-69 -2z"/>
<path d="M2235 2300 c-3 -6 1 -7 9 -4 18 7 21 14 7 14 -6 0 -13 -4 -16 -10z"/>
<path d="M2199 2273 c-13 -16 -12 -17 4 -4 9 7 17 15 17 17 0 8 -8 3 -21 -13z"/>
<path d="M2120 2094 c0 -10 5 -26 10 -34 8 -11 9 -7 4 15 -8 37 -14 45 -14 19z"/>
<path d="M2140 2033 c0 -34 96 -113 136 -113 10 0 -6 12 -34 26 -31 16 -63 41
-77 62 -14 20 -25 31 -25 25z"/>
<path d="M1676 1724 c-8 -20 20 -54 44 -54 10 0 24 7 31 16 11 14 10 19 -10
35 -29 23 -57 24 -65 3z"/>
<path d="M1656 1660 c137 -88 173 -408 61 -523 -18 -17 -41 -38 -52 -45 -20
-13 -20 -13 0 -9 11 3 29 8 40 13 18 7 19 6 5 -10 -13 -16 -12 -20 5 -32 43
-32 108 2 86 44 -14 26 -31 32 -56 20 -18 -8 -19 -8 -3 5 10 8 28 36 40 63 32
69 32 233 -1 316 -37 95 -105 178 -146 178 -5 0 4 -9 21 -20z"/>
<path d="M1807 1568 c-15 -12 -16 -18 -4 -58 10 -37 17 -46 39 -48 36 -4 42
21 19 74 -21 47 -28 51 -54 32z"/>
<path d="M1730 1393 c0 -5 7 -17 15 -27 14 -19 15 -19 15 7 0 17 -5 27 -15 27
-8 0 -15 -3 -15 -7z"/>
<path d="M1833 1308 c-14 -18 -24 -74 -17 -93 9 -21 51 -19 64 4 16 31 13 88
-6 95 -23 9 -30 8 -41 -6z"/>
<path d="M476 3198 c-3 -13 -5 -32 -5 -43 1 -11 5 -2 10 19 10 42 6 62 -5 24z"/>
<path d="M431 3054 c0 -11 3 -14 6 -6 3 7 2 16 -1 19 -3 4 -6 -2 -5 -13z"/>
<path d="M1348 2823 c7 -3 16 -2 19 1 4 3 -2 6 -13 5 -11 0 -14 -3 -6 -6z"/>
<path d="M255 2730 c-3 -6 1 -7 9 -4 18 7 21 14 7 14 -6 0 -13 -4 -16 -10z"/>
<path d="M188 2690 c-25 -20 -88 -108 -88 -125 0 -5 14 13 31 41 17 27 45 61
62 76 37 32 34 36 -5 8z"/>
<path d="M4745 2465 c-5 -2 -22 -6 -37 -9 -55 -12 -139 -111 -138 -163 1 -10
7 -1 14 19 28 78 74 121 144 134 103 20 212 -79 212 -192 0 -26 3 -45 6 -41
12 11 5 96 -9 123 -23 44 -77 90 -130 113 -27 12 -49 21 -50 20 -1 0 -6 -2
-12 -4z"/>
<path d="M4572 2210 c0 -14 2 -19 5 -12 2 6 2 18 0 25 -3 6 -5 1 -5 -13z"/>
<path d="M4602 2130 c26 -43 80 -79 128 -84 l45 -6 -38 10 c-56 15 -92 36
-123 72 -16 20 -21 23 -12 8z"/>
<path d="M4879 2103 c-13 -16 -12 -17 4 -4 9 7 17 15 17 17 0 8 -8 3 -21 -13z"/>
</g>
</svg>
