<svg xmlns="http://www.w3.org/2000/svg" width="188.71" height="188.71" xmlns:v="https://vecta.io/nano"><path d="M168.722 136.957c-5.398-6.005-18.321-21.243-28.949-23.585a2.11 2.11 0 0 0-.737-.603c-.857-.404-1.738-.756-2.609-1.13 21.437-27.542 5.918-72.16-16.76-93.612C90.862-9.218 46.75-3.15 20.88 24.241-3.555 50.114-8.229 97.337 15.903 125.014c19.192 22.014 67.946 36.505 90.659 11.208 16.418 16.976 67.007 76.58 81.086 40.933 5.366-13.59-10.933-31.309-18.926-40.198zm-9.393-.925L156.2 133.9c-14.497-10.073-30.444-18.22-44.271-29.238 1.244-1.934 2.331-3.942 3.319-5.992 2.25 1.952 4.59 3.802 6.96 5.601 2.591 1.968 5.209 4.304 7.947 6.317-.015.098-.061.195-.066.292-.671.543-.675 1.715-.127 2.402-.008.002-.018.005-.025.007.022.024.055.038.078.062.072.081.149.151.238.212.172.983.92 1.752 1.902 2.168-.043-.012-.035-.006.034.021.014.006.024.017.039.021s.036.014.055.021c.081.036.173.078.285.148.224.143.367.264.594.456.291 1.172 1.256 2.246 2.652 2.396 8.34.882 17.51 11.084 23.515 17.238zm-56.058-30.984c-.435.055-.851.261-1.097.661a45.01 45.01 0 0 1-1.993 2.956c-.346.369-.653.765-1.01 1.123-.313.315-.526.65-.688.991-10.787 12.716-25.635 12.508-41.438 4.018-20.71-11.127-30.596-34.533-20.171-56.137 9.869-20.451 31.311-27.169 50.867-19.755l6.178 3.54c3.097 1.782 6.041 3.776 8.932 5.845 15.45 15.115 13.646 39.668.42 56.758zm14.241-11.91c2.671 1.668 5.286 3.409 7.844 5.25 2.845 2.049 5.475 4.744 8.446 6.656a37.25 37.25 0 0 1-2.267 3.14c-1.96-1.238-4.007-2.379-5.88-3.643-3.367-2.27-6.604-4.711-9.872-7.111a58.8 58.8 0 0 0 1.729-4.292zm17.995 8.965c-2.229-2.102-5.082-3.755-7.54-5.443-3.116-2.142-6.354-4.096-9.65-5.945.901-2.907 1.584-5.865 1.951-8.856 2.634 3.232 13.459 9.54 18.458 12.29-.797 2.776-1.882 5.431-3.219 7.954zm4.199-12.078c-2.839-1.683-5.916-3.117-8.724-4.672l-6.862-3.78c-.688-.37-1.451-.972-2.209-1.181-.392-.108-.601-.034-.75.093-.049-.114-.122-.22-.247-.286a1.91 1.91 0 0 0-.381-.163c-.017-.005-.032.006-.048.003.19-2.212.285-4.425.183-6.627 5.9 5.411 12.822 9.885 19.446 14.279-.114.786-.259 1.56-.408 2.334zm.851-6.495c-6.505-4.636-13.908-7.859-20.099-13.006-.361-3.371-1.064-6.695-2.165-9.908 7.325 6.3 14.574 12.714 22.407 18.322.015 1.543-.042 3.074-.143 4.592zm-25.248-61.145c4.858 4.067 9.326 9.52 13.14 15.756-7.254-6.097-15.502-11.494-22.971-16.948-6.573-4.8-13.942-10.329-21.883-13.405 11.337 1.886 22.34 6.752 31.714 14.597zM75.223 6.993c.096.132.203.263.409.331 22.767 7.569 36.445 29.667 57.405 39.716.053.025.104.024.156.044 1.189 2.606 2.289 5.274 3.224 8.013-22.64-17.969-48.235-31.769-72.375-47.61 3.699-.516 7.441-.629 11.181-.494zm-13.696.884c25.265 18.503 51.682 35.375 76.886 53.975.943 3.759 1.621 7.565 1.981 11.35-8.397-6.185-16.667-12.626-24.971-19.048-2.895-5.377-6.946-10.306-12.405-14.387-6.199-4.634-12.853-7.672-19.583-9.229-10.664-7.257-21.711-13.908-33.439-19.437 3.745-1.456 7.61-2.516 11.531-3.224zM48.259 11.84c6.909 6.558 14.985 12.277 23.373 17.518-3.126.086-6.226.449-9.254 1.17-2.994-2.327-6.634-4.024-9.811-6.04-4.172-2.646-8.14-5.601-11.854-8.858 2.439-1.46 4.97-2.695 7.546-3.79zm-9.177 4.772c3.391 3.357 7.082 6.351 10.915 9.195 2.595 1.925 5.403 4.184 8.369 5.87a45.58 45.58 0 0 0-7.084 3.062c-2.301-1.833-4.756-3.513-7.018-5.37l-10.619-8.881c1.753-1.414 3.578-2.682 5.437-3.876zm-7.283 5.365l10.462 9.396c1.877 1.65 3.814 3.582 5.917 5.193-1.064.686-2.109 1.417-3.129 2.198-.947-.725-2.018-1.298-3.053-1.973-2.191-1.431-4.307-2.977-6.405-4.539l-8.077-6.187c1.376-1.451 2.813-2.803 4.285-4.088zm-6.621 6.561c.277-.325.586-.6.868-.918 2.316 2.563 5.079 4.74 7.791 6.906 2.383 1.903 5.411 4.918 8.516 6.502-1.465 1.298-2.894 2.662-4.24 4.169-.066-.3-.26-.58-.627-.774-5.839-3.097-11.33-6.403-16.45-10.445 1.308-1.882 2.673-3.713 4.142-5.44zm-5.084 6.774c4.807 4.502 10.18 8.457 16.08 11.354.18.088.356.129.525.141-1.321 1.607-2.595 3.289-3.77 5.111a48.08 48.08 0 0 0-1.499 2.497c-1.832-1.257-3.78-2.381-5.582-3.661-3.487-2.478-6.788-5.218-10.096-7.926-.024-.019-.05-.022-.075-.04 1.354-2.576 2.824-5.078 4.417-7.476zm-5.516 9.534c4.67 4.008 9.89 9.183 15.563 12.04a45.43 45.43 0 0 0-2.407 5.937c-5.269-3.883-10.668-7.66-16.058-11.392a83.88 83.88 0 0 1 2.902-6.585zm-3.691 8.779c5.191 4.179 10.321 8.761 16.02 12.11-.518 2.1-.887 4.201-1.079 6.295-1.741-2.998-5.483-5.172-8.231-7.059-2.759-1.896-5.729-3.445-8.784-4.801.593-2.212 1.304-4.389 2.074-6.545zm-2.476 7.991c2.472 1.286 4.887 2.666 7.208 4.225 3.457 2.322 5.905 5.896 9.327 8.096.281.181.535.149.76.048-.134 3 .016 5.981.5 8.91-2.657-2.127-5.589-4.073-8.086-6.149L7.163 67.461c.34-1.962.766-3.909 1.248-5.845zm-1.617 8.335l9.485 8.637c3.308 2.975 6.999 7.14 11.068 9.329 2.412 8.476 7.234 16.386 13.768 23.004-11.628-10.467-23.108-21.115-35.137-31.172.032-3.27.358-6.541.816-9.798zm11.322 48.24c-4.136-5.372-7.091-11.278-9.089-17.458 6.414 7.327 15.799 13.956 21.738 19.144 7.262 6.344 14.666 12.514 22.241 18.479 1.111.874 2.302 1.928 3.539 3.007-15.503-3.672-30.048-12.283-38.429-23.172zm46.39 24.609c-3.351-3.024-7.68-5.575-10.95-8.27l-22.379-18.971c-6.758-5.903-13.499-11.826-19.929-18.09-.611-.595-2.337-2.053-3.997-3.608-.757-3.772-1.144-7.617-1.248-11.483 22.685 20.654 43.655 43.527 69.097 60.85-3.494.155-7.045.004-10.594-.428zm15.389.006c-11.653-8.275-22.518-17.444-33.153-26.882 2.168 1.725 4.428 3.359 6.833 4.812 3.649 2.203 8.02 4 12.651 5.196 6.369 6.19 14.456 10.594 22.068 15.039-2.72.842-5.526 1.463-8.399 1.835zm10.62-2.588c.205-.591.095-1.291-.589-1.728-7.006-4.474-14.836-7.183-21.532-12.074 3.789.812 7.697 1.2 11.491 1.098l9.501 5.711c2.199 1.316 4.459 3.127 6.85 4.387-1.847.999-3.749 1.884-5.721 2.606zm8.58-4.321c-2.051-1.795-4.743-2.909-7.145-4.143l-8.816-4.45c2.723-.296 5.325-.914 7.75-1.828a180.12 180.12 0 0 0 11.607 7.946c-1.096.889-2.229 1.713-3.396 2.475zm62.832 42.8c-8.318-4.293-15.319-11.26-22.058-17.633-9.982-9.44-19.305-21.452-31.478-28.327-.264-1.348-1.664-2.33-3.034-1.639-.087-.041-.166-.096-.253-.136a1.41 1.41 0 0 0-.521-.124c-3.761-2.098-7.513-4.209-11.175-6.478 1.538-.783 2.937-1.766 4.238-2.869 26.816 17.667 47.33 43.271 74.863 59.956-3.853-.137-7.967-1.402-10.582-2.75zm15.808 2.021c-28.91-16.727-49.447-44.324-78.724-60.473 1.363-1.396 2.562-2.988 3.496-4.863.488-.142.973-.4 1.424-.834.142-.137.265-.288.404-.426 25.296 21.127 50.597 43.448 77.478 62.523-.747 2.063-2.213 3.359-4.078 4.073zm-72.228-67.828c1.926-2.017 3.661-4.176 5.237-6.427 21.517 18.891 46.805 31.655 66.759 52.533a1.47 1.47 0 0 0 .937.463c2.273 4.337 3.785 8.867 3.898 13.456-23.609-21.85-50.274-41.953-76.831-60.025z"/></svg>